<mxfile host="app.diagrams.net" modified="2023-12-21T08:04:10.436Z" agent="Mozilla/5.0 (Windows NT 10.0; Win64; x64) AppleWebKit/537.36 (KHTML, like Gecko) Chrome/120.0.0.0 Safari/537.36" etag="MCCna2bGnf4psQOzQZub" version="22.1.11" type="device">
  <diagram name="第 1 页" id="TqKDPVgios2m9M21Ib9q">
    <mxGraphModel dx="4025" dy="2532" grid="1" gridSize="10" guides="1" tooltips="1" connect="1" arrows="1" fold="1" page="1" pageScale="1" pageWidth="1169" pageHeight="827" background="none" math="0" shadow="0">
      <root>
        <mxCell id="0" />
        <mxCell id="1" parent="0" />
        <mxCell id="cErcUJjnt0wg8BuDWPs1-42" value="&lt;font style=&quot;font-size: 14px;&quot;&gt;Appointment&lt;/font&gt;" style="swimlane;fontStyle=1;align=center;verticalAlign=top;childLayout=stackLayout;horizontal=1;startSize=26;horizontalStack=0;resizeParent=1;resizeParentMax=0;resizeLast=0;collapsible=1;marginBottom=0;whiteSpace=wrap;html=1;fontFamily=Times New Roman;fontSize=14;" parent="1" vertex="1">
          <mxGeometry x="-350" y="-1150" width="330" height="350" as="geometry" />
        </mxCell>
        <mxCell id="cErcUJjnt0wg8BuDWPs1-43" value="&lt;font style=&quot;font-size: 14px;&quot;&gt;-appointmentID: int&lt;br style=&quot;&quot;&gt;-patientID : int&lt;br style=&quot;&quot;&gt;-doctorID : int&lt;br style=&quot;&quot;&gt;-appointmentTime : DateTime&lt;br style=&quot;&quot;&gt;-appointmentStatus : String&lt;/font&gt;" style="text;strokeColor=none;fillColor=none;align=left;verticalAlign=top;spacingLeft=4;spacingRight=4;overflow=hidden;rotatable=0;points=[[0,0.5],[1,0.5]];portConstraint=eastwest;whiteSpace=wrap;html=1;fontFamily=Times New Roman;fontSize=12;" parent="cErcUJjnt0wg8BuDWPs1-42" vertex="1">
          <mxGeometry y="26" width="330" height="90" as="geometry" />
        </mxCell>
        <mxCell id="cErcUJjnt0wg8BuDWPs1-44" value="" style="line;strokeWidth=1;fillColor=none;align=left;verticalAlign=middle;spacingTop=-1;spacingLeft=3;spacingRight=3;rotatable=0;labelPosition=right;points=[];portConstraint=eastwest;strokeColor=inherit;fontFamily=Times New Roman;fontSize=12;" parent="cErcUJjnt0wg8BuDWPs1-42" vertex="1">
          <mxGeometry y="116" width="330" height="8" as="geometry" />
        </mxCell>
        <mxCell id="cErcUJjnt0wg8BuDWPs1-45" value="&lt;font style=&quot;font-size: 14px;&quot;&gt;+createAppointment(int patientID, int doctorID, DateTime appointmentTime):&amp;nbsp;Boolean&lt;br&gt;+requestAppointment(int patientID):&amp;nbsp;Boolean&lt;br style=&quot;&quot;&gt;+cancelAppointment(int appointmentID):&amp;nbsp;Boolean&lt;br style=&quot;&quot;&gt;+selectAppointment(int appointmentID):&amp;nbsp;Appointment&lt;br style=&quot;&quot;&gt;+rescheduleAppointment(int appointmentID, Date appointmentTime):&amp;nbsp;Boolean&lt;br style=&quot;&quot;&gt;+requestReschedule(Int pateintID):&amp;nbsp;Boolean&lt;br style=&quot;&quot;&gt;+updateAppointmentStatus(int appointmentID, String status):&amp;nbsp;Boolean&lt;br style=&quot;&quot;&gt;+getAppointmentsByPatient(int patientID):&amp;nbsp;List[Appointment]&lt;br style=&quot;&quot;&gt;+getAppointmentsByDoctor(int doctorID):List[Appointment]&amp;nbsp;&lt;/font&gt;" style="text;strokeColor=none;fillColor=none;align=left;verticalAlign=top;spacingLeft=4;spacingRight=4;overflow=hidden;rotatable=0;points=[[0,0.5],[1,0.5]];portConstraint=eastwest;whiteSpace=wrap;html=1;fontFamily=Times New Roman;fontSize=12;" parent="cErcUJjnt0wg8BuDWPs1-42" vertex="1">
          <mxGeometry y="124" width="330" height="226" as="geometry" />
        </mxCell>
        <mxCell id="cErcUJjnt0wg8BuDWPs1-61" value="Patient" style="swimlane;fontStyle=1;align=center;verticalAlign=top;childLayout=stackLayout;horizontal=1;startSize=26;horizontalStack=0;resizeParent=1;resizeParentMax=0;resizeLast=0;collapsible=1;marginBottom=0;whiteSpace=wrap;html=1;fontFamily=Times New Roman;fontSize=14;" parent="1" vertex="1">
          <mxGeometry x="-900" y="-1120" width="430" height="360" as="geometry" />
        </mxCell>
        <mxCell id="cErcUJjnt0wg8BuDWPs1-62" value="&lt;font style=&quot;font-size: 14px;&quot;&gt;        -patientID:int&lt;br style=&quot;&quot;&gt;-name:String&amp;nbsp;&lt;br style=&quot;&quot;&gt;-phoneNumber:String&amp;nbsp;&lt;br style=&quot;&quot;&gt;-address:String&amp;nbsp;&lt;br style=&quot;&quot;&gt;-password:String&amp;nbsp;&lt;br style=&quot;&quot;&gt;-dateOfBirth:DateTime&amp;nbsp;&lt;br style=&quot;&quot;&gt;-gender:String&amp;nbsp;&lt;br style=&quot;&quot;&gt;-email:String&amp;nbsp;&lt;br style=&quot;&quot;&gt;        -photo:String&amp;nbsp;&lt;/font&gt;" style="text;strokeColor=none;fillColor=none;align=left;verticalAlign=top;spacingLeft=4;spacingRight=4;overflow=hidden;rotatable=0;points=[[0,0.5],[1,0.5]];portConstraint=eastwest;whiteSpace=wrap;html=1;fontFamily=Times New Roman;fontSize=12;" parent="cErcUJjnt0wg8BuDWPs1-61" vertex="1">
          <mxGeometry y="26" width="430" height="160" as="geometry" />
        </mxCell>
        <mxCell id="cErcUJjnt0wg8BuDWPs1-63" value="" style="line;strokeWidth=1;fillColor=none;align=left;verticalAlign=middle;spacingTop=-1;spacingLeft=3;spacingRight=3;rotatable=0;labelPosition=right;points=[];portConstraint=eastwest;strokeColor=inherit;fontFamily=Times New Roman;fontSize=12;" parent="cErcUJjnt0wg8BuDWPs1-61" vertex="1">
          <mxGeometry y="186" width="430" height="8" as="geometry" />
        </mxCell>
        <mxCell id="cErcUJjnt0wg8BuDWPs1-64" value="&lt;font style=&quot;font-size: 14px;&quot;&gt;+register(String name, String phoneNumber, String address, DateTime dateOfBirth, String gender, String email, String password,String photo):&amp;nbsp;Boolean&lt;br style=&quot;&quot;&gt;+login(String username, String password): Boolean&lt;br style=&quot;&quot;&gt;+logout():&amp;nbsp;void&lt;br style=&quot;&quot;&gt;+checkPatientInfo(int pateintID):&amp;nbsp;Patient&lt;br style=&quot;&quot;&gt;+updatePatientInfo(String name, String phoneNumber, String address, DateTime dateOfBirth, String gender, String email, String password,String photo):&amp;nbsp;Boolean&lt;br style=&quot;&quot;&gt;&lt;/font&gt;&lt;span style=&quot;font-size: 12px;&quot;&gt;&lt;br style=&quot;font-size: 12px;&quot;&gt;&lt;/span&gt;" style="text;strokeColor=none;fillColor=none;align=left;verticalAlign=top;spacingLeft=4;spacingRight=4;overflow=hidden;rotatable=0;points=[[0,0.5],[1,0.5]];portConstraint=eastwest;whiteSpace=wrap;html=1;fontSize=12;fontFamily=Times New Roman;" parent="cErcUJjnt0wg8BuDWPs1-61" vertex="1">
          <mxGeometry y="194" width="430" height="166" as="geometry" />
        </mxCell>
        <mxCell id="ZX2xaKg8rXWSrw48TpGc-2" value="" style="endArrow=none;html=1;rounded=0;exitX=1;exitY=0.5;exitDx=0;exitDy=0;entryX=1.133;entryY=0.967;entryDx=0;entryDy=0;entryPerimeter=0;fontFamily=Times New Roman;fontSize=12;" parent="1" source="cErcUJjnt0wg8BuDWPs1-62" target="ZX2xaKg8rXWSrw48TpGc-12" edge="1">
          <mxGeometry width="50" height="50" relative="1" as="geometry">
            <mxPoint x="-290" y="-940" as="sourcePoint" />
            <mxPoint x="-350" y="-1022" as="targetPoint" />
          </mxGeometry>
        </mxCell>
        <mxCell id="ZX2xaKg8rXWSrw48TpGc-4" value="" style="endArrow=diamondThin;endFill=0;endSize=24;html=1;rounded=0;entryX=0.5;entryY=1;entryDx=0;entryDy=0;entryPerimeter=0;exitX=0.517;exitY=0.016;exitDx=0;exitDy=0;exitPerimeter=0;fontFamily=Times New Roman;fontSize=12;" parent="1" source="hMjRBlSgMhUwe5W_ZoeI-19" target="cErcUJjnt0wg8BuDWPs1-64" edge="1">
          <mxGeometry width="160" relative="1" as="geometry">
            <mxPoint x="-580" y="-670" as="sourcePoint" />
            <mxPoint x="-740" y="-640" as="targetPoint" />
          </mxGeometry>
        </mxCell>
        <mxCell id="ZX2xaKg8rXWSrw48TpGc-5" value="" style="endArrow=none;startArrow=diamondThin;endFill=0;startFill=1;html=1;verticalAlign=bottom;labelBackgroundColor=none;strokeWidth=1;startSize=8;endSize=8;rounded=0;entryX=0.403;entryY=0.003;entryDx=0;entryDy=0;entryPerimeter=0;exitX=0.872;exitY=1.011;exitDx=0;exitDy=0;exitPerimeter=0;fontFamily=Times New Roman;fontSize=12;" parent="1" source="cErcUJjnt0wg8BuDWPs1-64" target="hMjRBlSgMhUwe5W_ZoeI-32" edge="1">
          <mxGeometry width="160" relative="1" as="geometry">
            <mxPoint x="-480" y="-730" as="sourcePoint" />
            <mxPoint x="-307" y="-671.0999999999999" as="targetPoint" />
          </mxGeometry>
        </mxCell>
        <mxCell id="ZX2xaKg8rXWSrw48TpGc-7" value="1" style="text;html=1;align=center;verticalAlign=middle;resizable=0;points=[];autosize=1;strokeColor=none;fillColor=none;fontFamily=Times New Roman;fontSize=12;" parent="1" vertex="1">
          <mxGeometry x="-490" y="-762.07" width="30" height="30" as="geometry" />
        </mxCell>
        <mxCell id="ZX2xaKg8rXWSrw48TpGc-8" value="*" style="text;html=1;align=center;verticalAlign=middle;resizable=0;points=[];autosize=1;strokeColor=none;fillColor=none;fontFamily=Times New Roman;fontSize=12;" parent="1" vertex="1">
          <mxGeometry x="-250" y="-620" width="30" height="30" as="geometry" />
        </mxCell>
        <mxCell id="ZX2xaKg8rXWSrw48TpGc-9" value="1" style="text;html=1;align=center;verticalAlign=middle;resizable=0;points=[];autosize=1;strokeColor=none;fillColor=none;fontFamily=Times New Roman;fontSize=12;" parent="1" vertex="1">
          <mxGeometry x="-700" y="-740" width="30" height="30" as="geometry" />
        </mxCell>
        <mxCell id="ZX2xaKg8rXWSrw48TpGc-10" value="*" style="text;html=1;align=center;verticalAlign=middle;resizable=0;points=[];autosize=1;strokeColor=none;fillColor=none;fontFamily=Times New Roman;fontSize=12;" parent="1" vertex="1">
          <mxGeometry x="-780" y="-620" width="30" height="30" as="geometry" />
        </mxCell>
        <mxCell id="ZX2xaKg8rXWSrw48TpGc-11" value="1" style="text;html=1;align=center;verticalAlign=middle;resizable=0;points=[];autosize=1;strokeColor=none;fillColor=none;fontFamily=Times New Roman;fontSize=12;" parent="1" vertex="1">
          <mxGeometry x="-470" y="-1045" width="30" height="30" as="geometry" />
        </mxCell>
        <mxCell id="ZX2xaKg8rXWSrw48TpGc-12" value="*" style="text;html=1;align=center;verticalAlign=middle;resizable=0;points=[];autosize=1;strokeColor=none;fillColor=none;fontFamily=Times New Roman;fontSize=12;" parent="1" vertex="1">
          <mxGeometry x="-380" y="-1045" width="30" height="30" as="geometry" />
        </mxCell>
        <mxCell id="ZX2xaKg8rXWSrw48TpGc-15" value="" style="endArrow=none;html=1;rounded=0;entryX=0;entryY=0.5;entryDx=0;entryDy=0;exitX=1.002;exitY=0.208;exitDx=0;exitDy=0;fontFamily=Times New Roman;fontSize=12;exitPerimeter=0;" parent="1" source="hMjRBlSgMhUwe5W_ZoeI-37" target="hMjRBlSgMhUwe5W_ZoeI-52" edge="1">
          <mxGeometry width="50" height="50" relative="1" as="geometry">
            <mxPoint x="300" y="-467" as="sourcePoint" />
            <mxPoint x="456.94000000000005" y="-466.952" as="targetPoint" />
          </mxGeometry>
        </mxCell>
        <mxCell id="ZX2xaKg8rXWSrw48TpGc-18" value="1" style="text;html=1;align=center;verticalAlign=middle;resizable=0;points=[];autosize=1;strokeColor=none;fillColor=none;fontFamily=Times New Roman;fontSize=12;" parent="1" vertex="1">
          <mxGeometry x="290" y="-480" width="30" height="30" as="geometry" />
        </mxCell>
        <mxCell id="ZX2xaKg8rXWSrw48TpGc-19" value="*" style="text;html=1;align=center;verticalAlign=middle;resizable=0;points=[];autosize=1;strokeColor=none;fillColor=none;fontFamily=Times New Roman;fontSize=12;" parent="1" vertex="1">
          <mxGeometry x="460" y="-550" width="30" height="30" as="geometry" />
        </mxCell>
        <mxCell id="ZX2xaKg8rXWSrw48TpGc-20" value="" style="endArrow=none;html=1;rounded=0;entryX=0.229;entryY=0.963;entryDx=0;entryDy=0;entryPerimeter=0;fontFamily=Times New Roman;fontSize=12;exitX=0.054;exitY=0.012;exitDx=0;exitDy=0;exitPerimeter=0;" parent="1" source="hMjRBlSgMhUwe5W_ZoeI-49" target="hMjRBlSgMhUwe5W_ZoeI-17" edge="1">
          <mxGeometry width="50" height="50" relative="1" as="geometry">
            <mxPoint x="462.1672636213425" y="-580" as="sourcePoint" />
            <mxPoint x="232.07999999999993" y="-941" as="targetPoint" />
          </mxGeometry>
        </mxCell>
        <mxCell id="ZX2xaKg8rXWSrw48TpGc-21" value="1" style="text;html=1;align=center;verticalAlign=middle;resizable=0;points=[];autosize=1;strokeColor=none;fillColor=none;fontFamily=Times New Roman;fontSize=12;" parent="1" vertex="1">
          <mxGeometry x="291" y="-792.07" width="30" height="30" as="geometry" />
        </mxCell>
        <mxCell id="ZX2xaKg8rXWSrw48TpGc-23" value="1" style="text;html=1;align=center;verticalAlign=middle;resizable=0;points=[];autosize=1;strokeColor=none;fillColor=none;fontFamily=Times New Roman;fontSize=12;" parent="1" vertex="1">
          <mxGeometry x="530" y="-670" width="30" height="30" as="geometry" />
        </mxCell>
        <mxCell id="ZX2xaKg8rXWSrw48TpGc-24" value="" style="endArrow=none;html=1;rounded=0;exitX=1;exitY=0.833;exitDx=0;exitDy=0;exitPerimeter=0;entryX=0;entryY=0;entryDx=0;entryDy=0;fontFamily=Times New Roman;fontSize=12;" parent="1" source="cErcUJjnt0wg8BuDWPs1-64" target="hMjRBlSgMhUwe5W_ZoeI-49" edge="1">
          <mxGeometry width="50" height="50" relative="1" as="geometry">
            <mxPoint x="-160" y="-690" as="sourcePoint" />
            <mxPoint x="452.0799999999999" y="-570.28" as="targetPoint" />
          </mxGeometry>
        </mxCell>
        <mxCell id="ZX2xaKg8rXWSrw48TpGc-25" value="*" style="text;html=1;align=center;verticalAlign=middle;resizable=0;points=[];autosize=1;strokeColor=none;fillColor=none;fontFamily=Times New Roman;fontSize=12;" parent="1" vertex="1">
          <mxGeometry x="470" y="-650" width="30" height="30" as="geometry" />
        </mxCell>
        <mxCell id="ZX2xaKg8rXWSrw48TpGc-26" value="1" style="text;html=1;align=center;verticalAlign=middle;resizable=0;points=[];autosize=1;strokeColor=none;fillColor=none;fontFamily=Times New Roman;fontSize=12;" parent="1" vertex="1">
          <mxGeometry x="-470" y="-810" width="30" height="30" as="geometry" />
        </mxCell>
        <mxCell id="ZX2xaKg8rXWSrw48TpGc-27" value="" style="endArrow=none;html=1;rounded=0;exitX=0.986;exitY=0.376;exitDx=0;exitDy=0;exitPerimeter=0;entryX=0;entryY=1.283;entryDx=0;entryDy=0;entryPerimeter=0;fontFamily=Times New Roman;fontSize=12;" parent="1" source="cErcUJjnt0wg8BuDWPs1-45" target="hMjRBlSgMhUwe5W_ZoeI-10" edge="1">
          <mxGeometry width="50" height="50" relative="1" as="geometry">
            <mxPoint x="-70" y="-830" as="sourcePoint" />
            <mxPoint x="89" y="-941" as="targetPoint" />
          </mxGeometry>
        </mxCell>
        <mxCell id="ZX2xaKg8rXWSrw48TpGc-28" value="1" style="text;html=1;align=center;verticalAlign=middle;resizable=0;points=[];autosize=1;strokeColor=none;fillColor=none;fontFamily=Times New Roman;fontSize=12;" parent="1" vertex="1">
          <mxGeometry x="-20" y="-970" width="30" height="30" as="geometry" />
        </mxCell>
        <mxCell id="ZX2xaKg8rXWSrw48TpGc-31" value="1" style="text;html=1;align=center;verticalAlign=middle;resizable=0;points=[];autosize=1;strokeColor=none;fillColor=none;fontFamily=Times New Roman;fontSize=12;" parent="1" vertex="1">
          <mxGeometry x="120" y="-970" width="30" height="30" as="geometry" />
        </mxCell>
        <mxCell id="hMjRBlSgMhUwe5W_ZoeI-3" value="TestManagement" style="swimlane;fontStyle=1;align=center;verticalAlign=top;childLayout=stackLayout;horizontal=1;startSize=24.928571428571427;horizontalStack=0;resizeParent=1;resizeParentMax=0;resizeLast=0;collapsible=0;marginBottom=0;fontFamily=Times New Roman;fontSize=14;" vertex="1" parent="1">
          <mxGeometry x="150" y="-1150" width="510" height="382.92857142857144" as="geometry" />
        </mxCell>
        <mxCell id="hMjRBlSgMhUwe5W_ZoeI-4" value="-testID : int" style="text;strokeColor=none;fillColor=none;align=left;verticalAlign=top;spacingLeft=4;spacingRight=4;overflow=hidden;rotatable=0;points=[[0,0.5],[1,0.5]];portConstraint=eastwest;fontFamily=Times New Roman;fontSize=14;" vertex="1" parent="hMjRBlSgMhUwe5W_ZoeI-3">
          <mxGeometry y="24.928571428571427" width="510" height="25" as="geometry" />
        </mxCell>
        <mxCell id="hMjRBlSgMhUwe5W_ZoeI-5" value="-patientID : int" style="text;strokeColor=none;fillColor=none;align=left;verticalAlign=top;spacingLeft=4;spacingRight=4;overflow=hidden;rotatable=0;points=[[0,0.5],[1,0.5]];portConstraint=eastwest;fontFamily=Times New Roman;fontSize=14;" vertex="1" parent="hMjRBlSgMhUwe5W_ZoeI-3">
          <mxGeometry y="49.92857142857143" width="510" height="25" as="geometry" />
        </mxCell>
        <mxCell id="hMjRBlSgMhUwe5W_ZoeI-6" value="-equipmentID : int" style="text;strokeColor=none;fillColor=none;align=left;verticalAlign=top;spacingLeft=4;spacingRight=4;overflow=hidden;rotatable=0;points=[[0,0.5],[1,0.5]];portConstraint=eastwest;fontFamily=Times New Roman;fontSize=14;" vertex="1" parent="hMjRBlSgMhUwe5W_ZoeI-3">
          <mxGeometry y="74.92857142857143" width="510" height="25" as="geometry" />
        </mxCell>
        <mxCell id="hMjRBlSgMhUwe5W_ZoeI-7" value="-technicianID : int" style="text;strokeColor=none;fillColor=none;align=left;verticalAlign=top;spacingLeft=4;spacingRight=4;overflow=hidden;rotatable=0;points=[[0,0.5],[1,0.5]];portConstraint=eastwest;fontFamily=Times New Roman;fontSize=14;" vertex="1" parent="hMjRBlSgMhUwe5W_ZoeI-3">
          <mxGeometry y="99.92857142857143" width="510" height="25" as="geometry" />
        </mxCell>
        <mxCell id="hMjRBlSgMhUwe5W_ZoeI-8" value="-testItems : String" style="text;strokeColor=none;fillColor=none;align=left;verticalAlign=top;spacingLeft=4;spacingRight=4;overflow=hidden;rotatable=0;points=[[0,0.5],[1,0.5]];portConstraint=eastwest;fontFamily=Times New Roman;fontSize=14;" vertex="1" parent="hMjRBlSgMhUwe5W_ZoeI-3">
          <mxGeometry y="124.92857142857143" width="510" height="25" as="geometry" />
        </mxCell>
        <mxCell id="hMjRBlSgMhUwe5W_ZoeI-9" value="-testResult : String" style="text;strokeColor=none;fillColor=none;align=left;verticalAlign=top;spacingLeft=4;spacingRight=4;overflow=hidden;rotatable=0;points=[[0,0.5],[1,0.5]];portConstraint=eastwest;fontFamily=Times New Roman;fontSize=14;" vertex="1" parent="hMjRBlSgMhUwe5W_ZoeI-3">
          <mxGeometry y="149.92857142857144" width="510" height="25" as="geometry" />
        </mxCell>
        <mxCell id="hMjRBlSgMhUwe5W_ZoeI-10" value="-testDate : DateTime" style="text;strokeColor=none;fillColor=none;align=left;verticalAlign=top;spacingLeft=4;spacingRight=4;overflow=hidden;rotatable=0;points=[[0,0.5],[1,0.5]];portConstraint=eastwest;fontFamily=Times New Roman;fontSize=14;" vertex="1" parent="hMjRBlSgMhUwe5W_ZoeI-3">
          <mxGeometry y="174.92857142857144" width="510" height="25" as="geometry" />
        </mxCell>
        <mxCell id="hMjRBlSgMhUwe5W_ZoeI-11" style="line;strokeWidth=1;fillColor=none;align=left;verticalAlign=middle;spacingTop=-1;spacingLeft=3;spacingRight=3;rotatable=0;labelPosition=right;points=[];portConstraint=eastwest;strokeColor=inherit;fontFamily=Times New Roman;fontSize=12;" vertex="1" parent="hMjRBlSgMhUwe5W_ZoeI-3">
          <mxGeometry y="199.92857142857144" width="510" height="8" as="geometry" />
        </mxCell>
        <mxCell id="hMjRBlSgMhUwe5W_ZoeI-12" value="+createTest(int patientID, int technicianID, String testItems) : Boolean" style="text;strokeColor=none;fillColor=none;align=left;verticalAlign=top;spacingLeft=4;spacingRight=4;overflow=hidden;rotatable=0;points=[[0,0.5],[1,0.5]];portConstraint=eastwest;fontFamily=Times New Roman;fontSize=14;" vertex="1" parent="hMjRBlSgMhUwe5W_ZoeI-3">
          <mxGeometry y="207.92857142857144" width="510" height="25" as="geometry" />
        </mxCell>
        <mxCell id="hMjRBlSgMhUwe5W_ZoeI-13" value="+publishResult(int testID, String testResult) : Boolean" style="text;strokeColor=none;fillColor=none;align=left;verticalAlign=top;spacingLeft=4;spacingRight=4;overflow=hidden;rotatable=0;points=[[0,0.5],[1,0.5]];portConstraint=eastwest;fontFamily=Times New Roman;fontSize=14;" vertex="1" parent="hMjRBlSgMhUwe5W_ZoeI-3">
          <mxGeometry y="232.92857142857144" width="510" height="25" as="geometry" />
        </mxCell>
        <mxCell id="hMjRBlSgMhUwe5W_ZoeI-14" value="+getTest(int testID) : Test" style="text;strokeColor=none;fillColor=none;align=left;verticalAlign=top;spacingLeft=4;spacingRight=4;overflow=hidden;rotatable=0;points=[[0,0.5],[1,0.5]];portConstraint=eastwest;fontFamily=Times New Roman;fontSize=14;" vertex="1" parent="hMjRBlSgMhUwe5W_ZoeI-3">
          <mxGeometry y="257.92857142857144" width="510" height="25" as="geometry" />
        </mxCell>
        <mxCell id="hMjRBlSgMhUwe5W_ZoeI-91" value="+checkResult(int testID,int patientID,String testResult) : Test" style="text;strokeColor=none;fillColor=none;align=left;verticalAlign=top;spacingLeft=4;spacingRight=4;overflow=hidden;rotatable=0;points=[[0,0.5],[1,0.5]];portConstraint=eastwest;fontFamily=Times New Roman;fontSize=14;" vertex="1" parent="hMjRBlSgMhUwe5W_ZoeI-3">
          <mxGeometry y="282.92857142857144" width="510" height="25" as="geometry" />
        </mxCell>
        <mxCell id="hMjRBlSgMhUwe5W_ZoeI-15" value="+getTestsByPatient(int patientID) : List[Test]" style="text;strokeColor=none;fillColor=none;align=left;verticalAlign=top;spacingLeft=4;spacingRight=4;overflow=hidden;rotatable=0;points=[[0,0.5],[1,0.5]];portConstraint=eastwest;fontFamily=Times New Roman;fontSize=14;" vertex="1" parent="hMjRBlSgMhUwe5W_ZoeI-3">
          <mxGeometry y="307.92857142857144" width="510" height="25" as="geometry" />
        </mxCell>
        <mxCell id="hMjRBlSgMhUwe5W_ZoeI-16" value="+getTestsByTechnician(int technicianID) : List[Test]" style="text;strokeColor=none;fillColor=none;align=left;verticalAlign=top;spacingLeft=4;spacingRight=4;overflow=hidden;rotatable=0;points=[[0,0.5],[1,0.5]];portConstraint=eastwest;fontFamily=Times New Roman;fontSize=14;" vertex="1" parent="hMjRBlSgMhUwe5W_ZoeI-3">
          <mxGeometry y="332.92857142857144" width="510" height="25" as="geometry" />
        </mxCell>
        <mxCell id="hMjRBlSgMhUwe5W_ZoeI-17" value="+updateTest(int testID, String testItems, String testResult, DateTime testDate) : Boolean" style="text;strokeColor=none;fillColor=none;align=left;verticalAlign=top;spacingLeft=4;spacingRight=4;overflow=hidden;rotatable=0;points=[[0,0.5],[1,0.5]];portConstraint=eastwest;fontFamily=Times New Roman;fontSize=14;" vertex="1" parent="hMjRBlSgMhUwe5W_ZoeI-3">
          <mxGeometry y="357.92857142857144" width="510" height="25" as="geometry" />
        </mxCell>
        <mxCell id="hMjRBlSgMhUwe5W_ZoeI-19" value="Billing" style="swimlane;fontStyle=1;align=center;verticalAlign=top;childLayout=stackLayout;horizontal=1;startSize=25.25;horizontalStack=0;resizeParent=1;resizeParentMax=0;resizeLast=0;collapsible=0;marginBottom=0;fontFamily=Times New Roman;fontSize=14;" vertex="1" parent="1">
          <mxGeometry x="-1015" y="-590" width="431" height="365" as="geometry" />
        </mxCell>
        <mxCell id="hMjRBlSgMhUwe5W_ZoeI-20" value="-billingID : int" style="text;strokeColor=none;fillColor=none;align=left;verticalAlign=top;spacingLeft=4;spacingRight=4;overflow=hidden;rotatable=0;points=[[0,0.5],[1,0.5]];portConstraint=eastwest;fontFamily=Times New Roman;fontSize=14;" vertex="1" parent="hMjRBlSgMhUwe5W_ZoeI-19">
          <mxGeometry y="25.25" width="431" height="25" as="geometry" />
        </mxCell>
        <mxCell id="hMjRBlSgMhUwe5W_ZoeI-21" value="-patientID : int" style="text;strokeColor=none;fillColor=none;align=left;verticalAlign=top;spacingLeft=4;spacingRight=4;overflow=hidden;rotatable=0;points=[[0,0.5],[1,0.5]];portConstraint=eastwest;fontFamily=Times New Roman;fontSize=14;" vertex="1" parent="hMjRBlSgMhUwe5W_ZoeI-19">
          <mxGeometry y="50.25" width="431" height="25" as="geometry" />
        </mxCell>
        <mxCell id="hMjRBlSgMhUwe5W_ZoeI-22" value="-details : String" style="text;strokeColor=none;fillColor=none;align=left;verticalAlign=top;spacingLeft=4;spacingRight=4;overflow=hidden;rotatable=0;points=[[0,0.5],[1,0.5]];portConstraint=eastwest;fontFamily=Times New Roman;fontSize=14;" vertex="1" parent="hMjRBlSgMhUwe5W_ZoeI-19">
          <mxGeometry y="75.25" width="431" height="25" as="geometry" />
        </mxCell>
        <mxCell id="hMjRBlSgMhUwe5W_ZoeI-23" value="-amount : double" style="text;strokeColor=none;fillColor=none;align=left;verticalAlign=top;spacingLeft=4;spacingRight=4;overflow=hidden;rotatable=0;points=[[0,0.5],[1,0.5]];portConstraint=eastwest;fontFamily=Times New Roman;fontSize=14;" vertex="1" parent="hMjRBlSgMhUwe5W_ZoeI-19">
          <mxGeometry y="100.25" width="431" height="25" as="geometry" />
        </mxCell>
        <mxCell id="hMjRBlSgMhUwe5W_ZoeI-24" value="-paymentStatus : String" style="text;strokeColor=none;fillColor=none;align=left;verticalAlign=top;spacingLeft=4;spacingRight=4;overflow=hidden;rotatable=0;points=[[0,0.5],[1,0.5]];portConstraint=eastwest;fontFamily=Times New Roman;fontSize=14;" vertex="1" parent="hMjRBlSgMhUwe5W_ZoeI-19">
          <mxGeometry y="125.25" width="431" height="25" as="geometry" />
        </mxCell>
        <mxCell id="hMjRBlSgMhUwe5W_ZoeI-25" value="-billingDate : DateTime" style="text;strokeColor=none;fillColor=none;align=left;verticalAlign=top;spacingLeft=4;spacingRight=4;overflow=hidden;rotatable=0;points=[[0,0.5],[1,0.5]];portConstraint=eastwest;fontFamily=Times New Roman;fontSize=14;" vertex="1" parent="hMjRBlSgMhUwe5W_ZoeI-19">
          <mxGeometry y="150.25" width="431" height="25" as="geometry" />
        </mxCell>
        <mxCell id="hMjRBlSgMhUwe5W_ZoeI-26" style="line;strokeWidth=1;fillColor=none;align=left;verticalAlign=middle;spacingTop=-1;spacingLeft=3;spacingRight=3;rotatable=0;labelPosition=right;points=[];portConstraint=eastwest;strokeColor=inherit;fontFamily=Times New Roman;fontSize=12;" vertex="1" parent="hMjRBlSgMhUwe5W_ZoeI-19">
          <mxGeometry y="175.25" width="431" height="8" as="geometry" />
        </mxCell>
        <mxCell id="hMjRBlSgMhUwe5W_ZoeI-27" value="+createBill(int patientID, String details, double amount) : Boolean" style="text;strokeColor=none;fillColor=none;align=left;verticalAlign=top;spacingLeft=4;spacingRight=4;overflow=hidden;rotatable=0;points=[[0,0.5],[1,0.5]];portConstraint=eastwest;fontFamily=Times New Roman;fontSize=14;" vertex="1" parent="hMjRBlSgMhUwe5W_ZoeI-19">
          <mxGeometry y="183.25" width="431" height="25" as="geometry" />
        </mxCell>
        <mxCell id="hMjRBlSgMhUwe5W_ZoeI-28" value="+getBill(int billingID) : Billing" style="text;strokeColor=none;fillColor=none;align=left;verticalAlign=top;spacingLeft=4;spacingRight=4;overflow=hidden;rotatable=0;points=[[0,0.5],[1,0.5]];portConstraint=eastwest;fontFamily=Times New Roman;fontSize=14;" vertex="1" parent="hMjRBlSgMhUwe5W_ZoeI-19">
          <mxGeometry y="208.25" width="431" height="25" as="geometry" />
        </mxCell>
        <mxCell id="hMjRBlSgMhUwe5W_ZoeI-29" value="+updatePaymentStatus(int billingID, String paymentStatus) : Boolean" style="text;strokeColor=none;fillColor=none;align=left;verticalAlign=top;spacingLeft=4;spacingRight=4;overflow=hidden;rotatable=0;points=[[0,0.5],[1,0.5]];portConstraint=eastwest;fontFamily=Times New Roman;fontSize=14;" vertex="1" parent="hMjRBlSgMhUwe5W_ZoeI-19">
          <mxGeometry y="233.25" width="431" height="25" as="geometry" />
        </mxCell>
        <mxCell id="hMjRBlSgMhUwe5W_ZoeI-30" value="+processPayment(int billingID, double amount) : Boolean" style="text;strokeColor=none;fillColor=none;align=left;verticalAlign=top;spacingLeft=4;spacingRight=4;overflow=hidden;rotatable=0;points=[[0,0.5],[1,0.5]];portConstraint=eastwest;fontFamily=Times New Roman;fontSize=14;" vertex="1" parent="hMjRBlSgMhUwe5W_ZoeI-19">
          <mxGeometry y="258.25" width="431" height="25" as="geometry" />
        </mxCell>
        <mxCell id="hMjRBlSgMhUwe5W_ZoeI-68" value="+requestPayment(int billingID) : Boolean" style="text;strokeColor=none;fillColor=none;align=left;verticalAlign=top;spacingLeft=4;spacingRight=4;overflow=hidden;rotatable=0;points=[[0,0.5],[1,0.5]];portConstraint=eastwest;fontFamily=Times New Roman;fontSize=14;" vertex="1" parent="hMjRBlSgMhUwe5W_ZoeI-19">
          <mxGeometry y="283.25" width="431" height="25" as="geometry" />
        </mxCell>
        <mxCell id="hMjRBlSgMhUwe5W_ZoeI-88" value="+refundBill(int billID,double amount): Boolean" style="text;strokeColor=none;fillColor=none;align=left;verticalAlign=top;spacingLeft=4;spacingRight=4;overflow=hidden;rotatable=0;points=[[0,0.5],[1,0.5]];portConstraint=eastwest;fontFamily=Times New Roman;fontSize=14;" vertex="1" parent="hMjRBlSgMhUwe5W_ZoeI-19">
          <mxGeometry y="308.25" width="431" height="25" as="geometry" />
        </mxCell>
        <mxCell id="hMjRBlSgMhUwe5W_ZoeI-31" value="+getBillsByPatient(int patientID) : List[Billing]&#xa;" style="text;strokeColor=none;fillColor=none;align=left;verticalAlign=top;spacingLeft=4;spacingRight=4;overflow=hidden;rotatable=0;points=[[0,0.5],[1,0.5]];portConstraint=eastwest;fontFamily=Times New Roman;fontSize=14;" vertex="1" parent="hMjRBlSgMhUwe5W_ZoeI-19">
          <mxGeometry y="333.25" width="431" height="31.75" as="geometry" />
        </mxCell>
        <mxCell id="hMjRBlSgMhUwe5W_ZoeI-32" value="PatientRecords" style="swimlane;fontStyle=1;align=center;verticalAlign=top;childLayout=stackLayout;horizontal=1;startSize=24.8;horizontalStack=0;resizeParent=1;resizeParentMax=0;resizeLast=0;collapsible=0;marginBottom=0;fontFamily=Times New Roman;fontSize=14;" vertex="1" parent="1">
          <mxGeometry x="-570" y="-580" width="860" height="382.8" as="geometry" />
        </mxCell>
        <mxCell id="hMjRBlSgMhUwe5W_ZoeI-33" value="-recordID : int" style="text;strokeColor=none;fillColor=none;align=left;verticalAlign=top;spacingLeft=4;spacingRight=4;overflow=hidden;rotatable=0;points=[[0,0.5],[1,0.5]];portConstraint=eastwest;fontSize=14;fontFamily=Times New Roman;" vertex="1" parent="hMjRBlSgMhUwe5W_ZoeI-32">
          <mxGeometry y="24.8" width="860" height="25" as="geometry" />
        </mxCell>
        <mxCell id="hMjRBlSgMhUwe5W_ZoeI-34" value="-patientID : int" style="text;strokeColor=none;fillColor=none;align=left;verticalAlign=top;spacingLeft=4;spacingRight=4;overflow=hidden;rotatable=0;points=[[0,0.5],[1,0.5]];portConstraint=eastwest;fontSize=14;fontFamily=Times New Roman;" vertex="1" parent="hMjRBlSgMhUwe5W_ZoeI-32">
          <mxGeometry y="49.8" width="860" height="25" as="geometry" />
        </mxCell>
        <mxCell id="hMjRBlSgMhUwe5W_ZoeI-35" value="-symptoms : String" style="text;strokeColor=none;fillColor=none;align=left;verticalAlign=top;spacingLeft=4;spacingRight=4;overflow=hidden;rotatable=0;points=[[0,0.5],[1,0.5]];portConstraint=eastwest;fontSize=14;fontFamily=Times New Roman;" vertex="1" parent="hMjRBlSgMhUwe5W_ZoeI-32">
          <mxGeometry y="74.8" width="860" height="25" as="geometry" />
        </mxCell>
        <mxCell id="hMjRBlSgMhUwe5W_ZoeI-36" value="-diagnoses : String" style="text;strokeColor=none;fillColor=none;align=left;verticalAlign=top;spacingLeft=4;spacingRight=4;overflow=hidden;rotatable=0;points=[[0,0.5],[1,0.5]];portConstraint=eastwest;fontSize=14;fontFamily=Times New Roman;" vertex="1" parent="hMjRBlSgMhUwe5W_ZoeI-32">
          <mxGeometry y="99.8" width="860" height="25" as="geometry" />
        </mxCell>
        <mxCell id="hMjRBlSgMhUwe5W_ZoeI-37" value="-treatments : String" style="text;strokeColor=none;fillColor=none;align=left;verticalAlign=top;spacingLeft=4;spacingRight=4;overflow=hidden;rotatable=0;points=[[0,0.5],[1,0.5]];portConstraint=eastwest;fontSize=14;fontFamily=Times New Roman;" vertex="1" parent="hMjRBlSgMhUwe5W_ZoeI-32">
          <mxGeometry y="124.8" width="860" height="25" as="geometry" />
        </mxCell>
        <mxCell id="hMjRBlSgMhUwe5W_ZoeI-38" value="-prescriptions : String" style="text;strokeColor=none;fillColor=none;align=left;verticalAlign=top;spacingLeft=4;spacingRight=4;overflow=hidden;rotatable=0;points=[[0,0.5],[1,0.5]];portConstraint=eastwest;fontSize=14;fontFamily=Times New Roman;" vertex="1" parent="hMjRBlSgMhUwe5W_ZoeI-32">
          <mxGeometry y="149.8" width="860" height="25" as="geometry" />
        </mxCell>
        <mxCell id="hMjRBlSgMhUwe5W_ZoeI-39" value="-testResults : String" style="text;strokeColor=none;fillColor=none;align=left;verticalAlign=top;spacingLeft=4;spacingRight=4;overflow=hidden;rotatable=0;points=[[0,0.5],[1,0.5]];portConstraint=eastwest;fontSize=14;fontFamily=Times New Roman;" vertex="1" parent="hMjRBlSgMhUwe5W_ZoeI-32">
          <mxGeometry y="174.8" width="860" height="25" as="geometry" />
        </mxCell>
        <mxCell id="hMjRBlSgMhUwe5W_ZoeI-40" value="-recordCreationDate : DateTime" style="text;strokeColor=none;fillColor=none;align=left;verticalAlign=top;spacingLeft=4;spacingRight=4;overflow=hidden;rotatable=0;points=[[0,0.5],[1,0.5]];portConstraint=eastwest;fontSize=14;fontFamily=Times New Roman;" vertex="1" parent="hMjRBlSgMhUwe5W_ZoeI-32">
          <mxGeometry y="199.8" width="860" height="25" as="geometry" />
        </mxCell>
        <mxCell id="hMjRBlSgMhUwe5W_ZoeI-41" value="-lastUpdateDate : DateTime" style="text;strokeColor=none;fillColor=none;align=left;verticalAlign=top;spacingLeft=4;spacingRight=4;overflow=hidden;rotatable=0;points=[[0,0.5],[1,0.5]];portConstraint=eastwest;fontSize=14;fontFamily=Times New Roman;" vertex="1" parent="hMjRBlSgMhUwe5W_ZoeI-32">
          <mxGeometry y="224.8" width="860" height="25" as="geometry" />
        </mxCell>
        <mxCell id="hMjRBlSgMhUwe5W_ZoeI-42" style="line;strokeWidth=1;fillColor=none;align=left;verticalAlign=middle;spacingTop=-1;spacingLeft=3;spacingRight=3;rotatable=0;labelPosition=right;points=[];portConstraint=eastwest;strokeColor=inherit;fontFamily=Times New Roman;" vertex="1" parent="hMjRBlSgMhUwe5W_ZoeI-32">
          <mxGeometry y="249.8" width="860" height="8" as="geometry" />
        </mxCell>
        <mxCell id="hMjRBlSgMhUwe5W_ZoeI-43" value="+createRecord(int patientID, String symptoms, String diagnoses, String treatments, String prescriptions, String testResults) : Boolean" style="text;strokeColor=none;fillColor=none;align=left;verticalAlign=top;spacingLeft=4;spacingRight=4;overflow=hidden;rotatable=0;points=[[0,0.5],[1,0.5]];portConstraint=eastwest;fontSize=14;fontFamily=Times New Roman;" vertex="1" parent="hMjRBlSgMhUwe5W_ZoeI-32">
          <mxGeometry y="257.8" width="860" height="25" as="geometry" />
        </mxCell>
        <mxCell id="hMjRBlSgMhUwe5W_ZoeI-44" value="+getRecord(int recordID) : PatientRecords" style="text;strokeColor=none;fillColor=none;align=left;verticalAlign=top;spacingLeft=4;spacingRight=4;overflow=hidden;rotatable=0;points=[[0,0.5],[1,0.5]];portConstraint=eastwest;fontSize=14;fontFamily=Times New Roman;" vertex="1" parent="hMjRBlSgMhUwe5W_ZoeI-32">
          <mxGeometry y="282.8" width="860" height="25" as="geometry" />
        </mxCell>
        <mxCell id="hMjRBlSgMhUwe5W_ZoeI-45" value="+updateRecord(int recordID, String symptoms, String diagnoses, String treatments, String prescriptions, String testResults) : Boolean" style="text;strokeColor=none;fillColor=none;align=left;verticalAlign=top;spacingLeft=4;spacingRight=4;overflow=hidden;rotatable=0;points=[[0,0.5],[1,0.5]];portConstraint=eastwest;fontSize=14;fontFamily=Times New Roman;" vertex="1" parent="hMjRBlSgMhUwe5W_ZoeI-32">
          <mxGeometry y="307.8" width="860" height="25" as="geometry" />
        </mxCell>
        <mxCell id="hMjRBlSgMhUwe5W_ZoeI-46" value="+getEHRsByPatient(int patientID) : List[PatientRecords]" style="text;strokeColor=none;fillColor=none;align=left;verticalAlign=top;spacingLeft=4;spacingRight=4;overflow=hidden;rotatable=0;points=[[0,0.5],[1,0.5]];portConstraint=eastwest;fontSize=14;fontFamily=Times New Roman;" vertex="1" parent="hMjRBlSgMhUwe5W_ZoeI-32">
          <mxGeometry y="332.8" width="860" height="25" as="geometry" />
        </mxCell>
        <mxCell id="hMjRBlSgMhUwe5W_ZoeI-47" value="+deleteRecord(int recordID) : Boolean" style="text;strokeColor=none;fillColor=none;align=left;verticalAlign=top;spacingLeft=4;spacingRight=4;overflow=hidden;rotatable=0;points=[[0,0.5],[1,0.5]];portConstraint=eastwest;fontSize=14;fontFamily=Times New Roman;" vertex="1" parent="hMjRBlSgMhUwe5W_ZoeI-32">
          <mxGeometry y="357.8" width="860" height="25" as="geometry" />
        </mxCell>
        <mxCell id="hMjRBlSgMhUwe5W_ZoeI-49" value="Prescription" style="swimlane;fontStyle=1;align=center;verticalAlign=top;childLayout=stackLayout;horizontal=1;startSize=24.6875;horizontalStack=0;resizeParent=1;resizeParentMax=0;resizeLast=0;collapsible=0;marginBottom=0;fontFamily=Times New Roman;fontSize=14;" vertex="1" parent="1">
          <mxGeometry x="500" y="-627.22" width="960" height="457.6875" as="geometry" />
        </mxCell>
        <mxCell id="hMjRBlSgMhUwe5W_ZoeI-50" value="-prescriptionID : int" style="text;strokeColor=none;fillColor=none;align=left;verticalAlign=top;spacingLeft=4;spacingRight=4;overflow=hidden;rotatable=0;points=[[0,0.5],[1,0.5]];portConstraint=eastwest;fontFamily=Times New Roman;fontSize=14;" vertex="1" parent="hMjRBlSgMhUwe5W_ZoeI-49">
          <mxGeometry y="24.6875" width="960" height="25" as="geometry" />
        </mxCell>
        <mxCell id="hMjRBlSgMhUwe5W_ZoeI-51" value="-patientID : int" style="text;strokeColor=none;fillColor=none;align=left;verticalAlign=top;spacingLeft=4;spacingRight=4;overflow=hidden;rotatable=0;points=[[0,0.5],[1,0.5]];portConstraint=eastwest;fontFamily=Times New Roman;fontSize=14;" vertex="1" parent="hMjRBlSgMhUwe5W_ZoeI-49">
          <mxGeometry y="49.6875" width="960" height="25" as="geometry" />
        </mxCell>
        <mxCell id="hMjRBlSgMhUwe5W_ZoeI-52" value="-doctorID : int" style="text;strokeColor=none;fillColor=none;align=left;verticalAlign=top;spacingLeft=4;spacingRight=4;overflow=hidden;rotatable=0;points=[[0,0.5],[1,0.5]];portConstraint=eastwest;fontFamily=Times New Roman;fontSize=14;" vertex="1" parent="hMjRBlSgMhUwe5W_ZoeI-49">
          <mxGeometry y="74.6875" width="960" height="25" as="geometry" />
        </mxCell>
        <mxCell id="hMjRBlSgMhUwe5W_ZoeI-53" value="-medications : String" style="text;strokeColor=none;fillColor=none;align=left;verticalAlign=top;spacingLeft=4;spacingRight=4;overflow=hidden;rotatable=0;points=[[0,0.5],[1,0.5]];portConstraint=eastwest;fontFamily=Times New Roman;fontSize=14;" vertex="1" parent="hMjRBlSgMhUwe5W_ZoeI-49">
          <mxGeometry y="99.6875" width="960" height="25" as="geometry" />
        </mxCell>
        <mxCell id="hMjRBlSgMhUwe5W_ZoeI-54" value="-dosage : String" style="text;strokeColor=none;fillColor=none;align=left;verticalAlign=top;spacingLeft=4;spacingRight=4;overflow=hidden;rotatable=0;points=[[0,0.5],[1,0.5]];portConstraint=eastwest;fontFamily=Times New Roman;fontSize=14;" vertex="1" parent="hMjRBlSgMhUwe5W_ZoeI-49">
          <mxGeometry y="124.6875" width="960" height="25" as="geometry" />
        </mxCell>
        <mxCell id="hMjRBlSgMhUwe5W_ZoeI-55" value="-frequency : String" style="text;strokeColor=none;fillColor=none;align=left;verticalAlign=top;spacingLeft=4;spacingRight=4;overflow=hidden;rotatable=0;points=[[0,0.5],[1,0.5]];portConstraint=eastwest;fontFamily=Times New Roman;fontSize=14;" vertex="1" parent="hMjRBlSgMhUwe5W_ZoeI-49">
          <mxGeometry y="149.6875" width="960" height="25" as="geometry" />
        </mxCell>
        <mxCell id="hMjRBlSgMhUwe5W_ZoeI-56" value="-startDate : DateTime" style="text;strokeColor=none;fillColor=none;align=left;verticalAlign=top;spacingLeft=4;spacingRight=4;overflow=hidden;rotatable=0;points=[[0,0.5],[1,0.5]];portConstraint=eastwest;fontFamily=Times New Roman;fontSize=14;" vertex="1" parent="hMjRBlSgMhUwe5W_ZoeI-49">
          <mxGeometry y="174.6875" width="960" height="25" as="geometry" />
        </mxCell>
        <mxCell id="hMjRBlSgMhUwe5W_ZoeI-57" value="-endDate : DateTime" style="text;strokeColor=none;fillColor=none;align=left;verticalAlign=top;spacingLeft=4;spacingRight=4;overflow=hidden;rotatable=0;points=[[0,0.5],[1,0.5]];portConstraint=eastwest;fontFamily=Times New Roman;fontSize=14;" vertex="1" parent="hMjRBlSgMhUwe5W_ZoeI-49">
          <mxGeometry y="199.6875" width="960" height="25" as="geometry" />
        </mxCell>
        <mxCell id="hMjRBlSgMhUwe5W_ZoeI-58" value="-notes : String" style="text;strokeColor=none;fillColor=none;align=left;verticalAlign=top;spacingLeft=4;spacingRight=4;overflow=hidden;rotatable=0;points=[[0,0.5],[1,0.5]];portConstraint=eastwest;fontFamily=Times New Roman;fontSize=14;" vertex="1" parent="hMjRBlSgMhUwe5W_ZoeI-49">
          <mxGeometry y="224.6875" width="960" height="25" as="geometry" />
        </mxCell>
        <mxCell id="hMjRBlSgMhUwe5W_ZoeI-59" style="line;strokeWidth=1;fillColor=none;align=left;verticalAlign=middle;spacingTop=-1;spacingLeft=3;spacingRight=3;rotatable=0;labelPosition=right;points=[];portConstraint=eastwest;strokeColor=inherit;fontFamily=Times New Roman;" vertex="1" parent="hMjRBlSgMhUwe5W_ZoeI-49">
          <mxGeometry y="249.6875" width="960" height="8" as="geometry" />
        </mxCell>
        <mxCell id="hMjRBlSgMhUwe5W_ZoeI-90" value="+askPrescriptionRefill(int prescriptionID) : void" style="text;strokeColor=none;fillColor=none;align=left;verticalAlign=top;spacingLeft=4;spacingRight=4;overflow=hidden;rotatable=0;points=[[0,0.5],[1,0.5]];portConstraint=eastwest;fontFamily=Times New Roman;fontSize=14;" vertex="1" parent="hMjRBlSgMhUwe5W_ZoeI-49">
          <mxGeometry y="257.6875" width="960" height="25" as="geometry" />
        </mxCell>
        <mxCell id="hMjRBlSgMhUwe5W_ZoeI-60" value="+createPrescription(int patientID, int doctorID, String medications, String dosage, String frequency, DateTime startDate, DateTime endDate, String notes) : Boolean" style="text;strokeColor=none;fillColor=none;align=left;verticalAlign=top;spacingLeft=4;spacingRight=4;overflow=hidden;rotatable=0;points=[[0,0.5],[1,0.5]];portConstraint=eastwest;fontFamily=Times New Roman;fontSize=14;" vertex="1" parent="hMjRBlSgMhUwe5W_ZoeI-49">
          <mxGeometry y="282.6875" width="960" height="25" as="geometry" />
        </mxCell>
        <mxCell id="hMjRBlSgMhUwe5W_ZoeI-61" value="+getPrescription(int prescriptionID) : Prescription" style="text;strokeColor=none;fillColor=none;align=left;verticalAlign=top;spacingLeft=4;spacingRight=4;overflow=hidden;rotatable=0;points=[[0,0.5],[1,0.5]];portConstraint=eastwest;fontFamily=Times New Roman;fontSize=14;" vertex="1" parent="hMjRBlSgMhUwe5W_ZoeI-49">
          <mxGeometry y="307.6875" width="960" height="25" as="geometry" />
        </mxCell>
        <mxCell id="hMjRBlSgMhUwe5W_ZoeI-62" value="+updatePrescription(int prescriptionID, String medications, String dosage, String frequency, DateTime startDate, DateTime endDate, String notes) : Boolean" style="text;strokeColor=none;fillColor=none;align=left;verticalAlign=top;spacingLeft=4;spacingRight=4;overflow=hidden;rotatable=0;points=[[0,0.5],[1,0.5]];portConstraint=eastwest;fontFamily=Times New Roman;fontSize=14;" vertex="1" parent="hMjRBlSgMhUwe5W_ZoeI-49">
          <mxGeometry y="332.6875" width="960" height="25" as="geometry" />
        </mxCell>
        <mxCell id="hMjRBlSgMhUwe5W_ZoeI-63" value="+validatePrescription(int prescriptionID) : Boolean" style="text;strokeColor=none;fillColor=none;align=left;verticalAlign=top;spacingLeft=4;spacingRight=4;overflow=hidden;rotatable=0;points=[[0,0.5],[1,0.5]];portConstraint=eastwest;fontFamily=Times New Roman;fontSize=14;" vertex="1" parent="hMjRBlSgMhUwe5W_ZoeI-49">
          <mxGeometry y="357.6875" width="960" height="25" as="geometry" />
        </mxCell>
        <mxCell id="hMjRBlSgMhUwe5W_ZoeI-64" value="+getPrescriptionsByPatient(int patientID) : List[Prescription]" style="text;strokeColor=none;fillColor=none;align=left;verticalAlign=top;spacingLeft=4;spacingRight=4;overflow=hidden;rotatable=0;points=[[0,0.5],[1,0.5]];portConstraint=eastwest;fontFamily=Times New Roman;fontSize=14;" vertex="1" parent="hMjRBlSgMhUwe5W_ZoeI-49">
          <mxGeometry y="382.6875" width="960" height="25" as="geometry" />
        </mxCell>
        <mxCell id="hMjRBlSgMhUwe5W_ZoeI-89" value="+refusePrescription(int prescriptionID) : void" style="text;strokeColor=none;fillColor=none;align=left;verticalAlign=top;spacingLeft=4;spacingRight=4;overflow=hidden;rotatable=0;points=[[0,0.5],[1,0.5]];portConstraint=eastwest;fontFamily=Times New Roman;fontSize=14;" vertex="1" parent="hMjRBlSgMhUwe5W_ZoeI-49">
          <mxGeometry y="407.6875" width="960" height="25" as="geometry" />
        </mxCell>
        <mxCell id="hMjRBlSgMhUwe5W_ZoeI-65" value="+deletePrescription(int prescriptionID) : Boolean" style="text;strokeColor=none;fillColor=none;align=left;verticalAlign=top;spacingLeft=4;spacingRight=4;overflow=hidden;rotatable=0;points=[[0,0.5],[1,0.5]];portConstraint=eastwest;fontFamily=Times New Roman;fontSize=14;" vertex="1" parent="hMjRBlSgMhUwe5W_ZoeI-49">
          <mxGeometry y="432.6875" width="960" height="25" as="geometry" />
        </mxCell>
        <mxCell id="hMjRBlSgMhUwe5W_ZoeI-70" value="Notification" style="swimlane;fontStyle=1;align=center;verticalAlign=top;childLayout=stackLayout;horizontal=1;startSize=26.857142857142858;horizontalStack=0;resizeParent=1;resizeParentMax=0;resizeLast=0;collapsible=0;marginBottom=0;fontSize=14;fontFamily=Times New Roman;" vertex="1" parent="1">
          <mxGeometry x="-1510" y="-1077" width="480" height="266.9971428571429" as="geometry" />
        </mxCell>
        <mxCell id="hMjRBlSgMhUwe5W_ZoeI-71" value="-int notificationID" style="text;strokeColor=none;fillColor=none;align=left;verticalAlign=top;spacingLeft=4;spacingRight=4;overflow=hidden;rotatable=0;points=[[0,0.5],[1,0.5]];portConstraint=eastwest;fontSize=14;fontFamily=Times New Roman;" vertex="1" parent="hMjRBlSgMhUwe5W_ZoeI-70">
          <mxGeometry y="26.857142857142858" width="480" height="27" as="geometry" />
        </mxCell>
        <mxCell id="hMjRBlSgMhUwe5W_ZoeI-83" value="-int patientID" style="text;strokeColor=none;fillColor=none;align=left;verticalAlign=top;spacingLeft=4;spacingRight=4;overflow=hidden;rotatable=0;points=[[0,0.5],[1,0.5]];portConstraint=eastwest;fontSize=14;fontFamily=Times New Roman;" vertex="1" parent="hMjRBlSgMhUwe5W_ZoeI-70">
          <mxGeometry y="53.85714285714286" width="480" height="27" as="geometry" />
        </mxCell>
        <mxCell id="hMjRBlSgMhUwe5W_ZoeI-72" value="-int appointmentID" style="text;strokeColor=none;fillColor=none;align=left;verticalAlign=top;spacingLeft=4;spacingRight=4;overflow=hidden;rotatable=0;points=[[0,0.5],[1,0.5]];portConstraint=eastwest;fontSize=14;fontFamily=Times New Roman;" vertex="1" parent="hMjRBlSgMhUwe5W_ZoeI-70">
          <mxGeometry y="80.85714285714286" width="480" height="27" as="geometry" />
        </mxCell>
        <mxCell id="hMjRBlSgMhUwe5W_ZoeI-73" value="-String notificationType" style="text;strokeColor=none;fillColor=none;align=left;verticalAlign=top;spacingLeft=4;spacingRight=4;overflow=hidden;rotatable=0;points=[[0,0.5],[1,0.5]];portConstraint=eastwest;fontSize=14;fontFamily=Times New Roman;" vertex="1" parent="hMjRBlSgMhUwe5W_ZoeI-70">
          <mxGeometry y="107.85714285714286" width="480" height="27" as="geometry" />
        </mxCell>
        <mxCell id="hMjRBlSgMhUwe5W_ZoeI-74" value="-String messageContent" style="text;strokeColor=none;fillColor=none;align=left;verticalAlign=top;spacingLeft=4;spacingRight=4;overflow=hidden;rotatable=0;points=[[0,0.5],[1,0.5]];portConstraint=eastwest;fontSize=14;fontFamily=Times New Roman;" vertex="1" parent="hMjRBlSgMhUwe5W_ZoeI-70">
          <mxGeometry y="134.85714285714286" width="480" height="27" as="geometry" />
        </mxCell>
        <mxCell id="hMjRBlSgMhUwe5W_ZoeI-75" value="-DateTime sendTime" style="text;strokeColor=none;fillColor=none;align=left;verticalAlign=top;spacingLeft=4;spacingRight=4;overflow=hidden;rotatable=0;points=[[0,0.5],[1,0.5]];portConstraint=eastwest;fontSize=14;fontFamily=Times New Roman;" vertex="1" parent="hMjRBlSgMhUwe5W_ZoeI-70">
          <mxGeometry y="161.85714285714286" width="480" height="27" as="geometry" />
        </mxCell>
        <mxCell id="hMjRBlSgMhUwe5W_ZoeI-76" style="line;strokeWidth=1;fillColor=none;align=left;verticalAlign=middle;spacingTop=-1;spacingLeft=3;spacingRight=3;rotatable=0;labelPosition=right;points=[];portConstraint=eastwest;strokeColor=inherit;" vertex="1" parent="hMjRBlSgMhUwe5W_ZoeI-70">
          <mxGeometry y="188.85714285714286" width="480" height="8" as="geometry" />
        </mxCell>
        <mxCell id="hMjRBlSgMhUwe5W_ZoeI-79" value="+sendNotification(int appointmentID,,int patientID,String notificationType) : void " style="text;strokeColor=none;fillColor=none;align=left;verticalAlign=top;spacingLeft=4;spacingRight=4;overflow=hidden;rotatable=0;points=[[0,0.5],[1,0.5]];portConstraint=eastwest;fontSize=14;fontFamily=Times New Roman;" vertex="1" parent="hMjRBlSgMhUwe5W_ZoeI-70">
          <mxGeometry y="196.85714285714286" width="480" height="27" as="geometry" />
        </mxCell>
        <mxCell id="hMjRBlSgMhUwe5W_ZoeI-77" value="+createNotifications(int appointmentID,int patientID,String notificationType, &#xa;String messageContent,: DateTime sendTime) : void" style="text;strokeColor=none;fillColor=none;align=left;verticalAlign=top;spacingLeft=4;spacingRight=4;overflow=hidden;rotatable=0;points=[[0,0.5],[1,0.5]];portConstraint=eastwest;fontSize=14;fontFamily=Times New Roman;" vertex="1" parent="hMjRBlSgMhUwe5W_ZoeI-70">
          <mxGeometry y="223.85714285714286" width="480" height="43.14" as="geometry" />
        </mxCell>
        <mxCell id="hMjRBlSgMhUwe5W_ZoeI-80" value="" style="endArrow=diamondThin;endFill=0;endSize=24;html=1;rounded=0;entryX=-0.003;entryY=0.028;entryDx=0;entryDy=0;entryPerimeter=0;" edge="1" parent="1" target="cErcUJjnt0wg8BuDWPs1-64">
          <mxGeometry width="160" relative="1" as="geometry">
            <mxPoint x="-1030" y="-921" as="sourcePoint" />
            <mxPoint x="-930" y="-920" as="targetPoint" />
          </mxGeometry>
        </mxCell>
        <mxCell id="hMjRBlSgMhUwe5W_ZoeI-81" value="1" style="text;html=1;align=center;verticalAlign=middle;resizable=0;points=[];autosize=1;strokeColor=none;fillColor=none;fontFamily=Times New Roman;fontSize=12;" vertex="1" parent="1">
          <mxGeometry x="-940" y="-920" width="30" height="30" as="geometry" />
        </mxCell>
        <mxCell id="hMjRBlSgMhUwe5W_ZoeI-82" value="*" style="text;html=1;align=center;verticalAlign=middle;resizable=0;points=[];autosize=1;strokeColor=none;fillColor=none;fontFamily=Times New Roman;fontSize=12;" vertex="1" parent="1">
          <mxGeometry x="-1030" y="-920" width="30" height="30" as="geometry" />
        </mxCell>
      </root>
    </mxGraphModel>
  </diagram>
</mxfile>
